<?xml version="1.0" encoding="utf-8"?>
<!-- Generator: Adobe Illustrator 16.0.0, SVG Export Plug-In . SVG Version: 6.00 Build 0)  -->
<!DOCTYPE svg PUBLIC "-//W3C//DTD SVG 1.1//EN" "http://www.w3.org/Graphics/SVG/1.1/DTD/svg11.dtd">
<svg version="1.1" id="Layer_1" xmlns="http://www.w3.org/2000/svg" xmlns:xlink="http://www.w3.org/1999/xlink" x="0px" y="0px"
	 width="30px" height="26px" viewBox="0 0 30 26" enable-background="new 0 0 30 26" xml:space="preserve">
<g opacity="0.1">
	<path d="M25.009,5c1.37,0,1.914,0.76,1.208,1.935l-9.935,16.433c-0.706,1.174-1.86,1.123-2.566-0.051L3.783,6.959
		C3.077,5.785,3.621,5,4.991,5H25.009z"/>
</g>
<g opacity="0.2">
	<path d="M25.009,4c1.37,0,1.914,0.76,1.208,1.935l-9.935,16.433c-0.706,1.174-1.86,1.123-2.566-0.051L3.783,5.959
		C3.077,4.785,3.621,4,4.991,4H25.009z"/>
</g>
<g opacity="0.3">
	<path d="M25.009,3c1.37,0,1.914,0.76,1.208,1.935l-9.935,16.433c-0.706,1.174-1.86,1.123-2.566-0.051L3.783,4.959
		C3.077,3.785,3.621,3,4.991,3H25.009z"/>
</g>
<g>
	<path fill="#FF6600" d="M25.009,2c1.37,0,1.914,0.76,1.208,1.935l-9.935,16.433c-0.706,1.174-1.86,1.123-2.566-0.051L3.783,3.959
		C3.077,2.785,3.621,2,4.991,2H25.009z"/>
</g>
<g opacity="0.4">
	<path fill="#FFFFFF" d="M25,2.292c0,0-18.583,0-20,0s-1.507,0.95-1.507,0.95C3.358,2.476,3.924,2,4.991,2h20.019
		c1.083,0,1.651,0.476,1.49,1.256C26.499,3.256,26.469,2.292,25,2.292z"/>
</g>
</svg>
