<?xml version="1.0" encoding="utf-8"?>
<!-- Generator: Adobe Illustrator 16.0.0, SVG Export Plug-In . SVG Version: 6.00 Build 0)  -->
<!DOCTYPE svg PUBLIC "-//W3C//DTD SVG 1.1//EN" "http://www.w3.org/Graphics/SVG/1.1/DTD/svg11.dtd">
<svg version="1.1" id="Layer_1" xmlns="http://www.w3.org/2000/svg" xmlns:xlink="http://www.w3.org/1999/xlink" x="0px" y="0px"
	 width="110px" height="26px" viewBox="0 0 110 26" enable-background="new 0 0 110 26" xml:space="preserve">
<g>
	<g>
		<path fill="#FF6600" d="M0.83,18.967V3.451c0-0.942,0.728-1.67,1.671-1.67h10.962c0.809,0,1.481,0.674,1.481,1.482
			c0,0.835-0.673,1.481-1.481,1.481h-9.32v4.903h8.108c0.808,0,1.481,0.673,1.481,1.508c0,0.808-0.674,1.455-1.481,1.455H4.143
			v5.063h9.455c0.808,0,1.481,0.674,1.481,1.482c0,0.835-0.674,1.482-1.481,1.482H2.501C1.558,20.638,0.83,19.91,0.83,18.967z"/>
		<path fill="#FF6600" d="M16.912,23.734c-0.566-0.215-0.916-0.673-0.916-1.292c0-0.728,0.62-1.348,1.374-1.348
			c0.243,0,0.431,0.054,0.592,0.135c1.292,0.727,2.721,1.131,4.364,1.131c2.91,0,4.498-1.508,4.498-4.363v-1.104
			c-1.185,1.535-2.667,2.612-5.01,2.612c-3.34,0-6.465-2.479-6.465-6.654v-0.054c0-4.202,3.152-6.68,6.465-6.68
			c2.398,0,3.879,1.104,4.984,2.424V7.869c0-0.889,0.727-1.616,1.615-1.616c0.917,0,1.644,0.728,1.644,1.643v9.832
			c0,2.397-0.62,4.176-1.806,5.359C26.958,24.381,24.966,25,22.406,25C20.413,25,18.636,24.569,16.912,23.734z M26.851,12.825
			v-0.054c0-2.317-1.913-3.907-4.175-3.907c-2.262,0-4.04,1.563-4.04,3.907v0.054c0,2.316,1.805,3.906,4.04,3.906
			C24.938,16.731,26.851,15.142,26.851,12.825z"/>
		<path fill="#FF6600" d="M33.639,23.734c-0.566-0.215-0.916-0.673-0.916-1.292c0-0.728,0.619-1.348,1.374-1.348
			c0.242,0,0.431,0.054,0.593,0.135c1.293,0.727,2.72,1.131,4.363,1.131c2.909,0,4.498-1.508,4.498-4.363v-1.104
			c-1.184,1.535-2.666,2.612-5.01,2.612c-3.34,0-6.464-2.479-6.464-6.654v-0.054c0-4.202,3.152-6.68,6.464-6.68
			c2.398,0,3.879,1.104,4.984,2.424V7.869c0-0.889,0.728-1.616,1.615-1.616c0.917,0,1.644,0.728,1.644,1.643v9.832
			c0,2.397-0.62,4.176-1.805,5.359C43.687,24.381,41.693,25,39.134,25C37.141,25,35.364,24.569,33.639,23.734z M43.579,12.825
			v-0.054c0-2.317-1.913-3.907-4.175-3.907c-2.263,0-4.04,1.563-4.04,3.907v0.054c0,2.316,1.805,3.906,4.04,3.906
			C41.666,16.731,43.579,15.142,43.579,12.825z"/>
		<path fill="#FFFFFF" d="M54.542,4.852h-4.58c-0.862,0-1.535-0.701-1.535-1.536c0-0.833,0.673-1.535,1.535-1.535h12.526
			c0.835,0,1.508,0.702,1.508,1.535c0,0.835-0.673,1.536-1.508,1.536h-4.606v14.276c0,0.916-0.754,1.644-1.67,1.644
			c-0.917,0-1.67-0.728-1.67-1.644V4.852z"/>
		<path fill="#FFFFFF" d="M65.586,2.589C65.586,1.62,66.394,1,67.444,1c1.051,0,1.859,0.62,1.859,1.589v0.162
			c0,0.969-0.809,1.617-1.859,1.617c-1.05,0-1.858-0.647-1.858-1.617V2.589z M65.829,7.896c0-0.916,0.7-1.643,1.615-1.643
			c0.916,0,1.643,0.728,1.643,1.643v11.26c0,0.916-0.727,1.616-1.643,1.616c-0.889,0-1.615-0.7-1.615-1.616V7.896z"/>
		<path fill="#FFFFFF" d="M71.997,7.896c0-0.916,0.701-1.643,1.617-1.643c0.916,0,1.643,0.728,1.643,1.643v0.674
			c0.916-1.266,2.154-2.451,4.336-2.451c2.047,0,3.501,0.996,4.256,2.504c1.131-1.508,2.64-2.504,4.794-2.504
			c3.098,0,4.984,1.966,4.984,5.441v7.596c0,0.916-0.702,1.616-1.617,1.616s-1.643-0.7-1.643-1.616v-6.599
			c0-2.263-1.051-3.475-2.882-3.475c-1.778,0-3.044,1.239-3.044,3.529v6.545c0,0.916-0.728,1.616-1.617,1.616
			c-0.916,0-1.643-0.7-1.643-1.616v-6.626c0-2.209-1.077-3.448-2.882-3.448s-3.043,1.347-3.043,3.529v6.545
			c0,0.916-0.728,1.616-1.643,1.616c-0.889,0-1.617-0.7-1.617-1.616V7.896z"/>
		<path fill="#FFFFFF" d="M102.759,20.96c-4.121,0-7.3-2.989-7.3-7.38v-0.055c0-4.068,2.882-7.407,6.949-7.407
			c4.525,0,6.762,3.716,6.762,7.002c0,0.917-0.701,1.562-1.536,1.562h-8.915c0.35,2.316,1.993,3.609,4.095,3.609
			c1.373,0,2.451-0.485,3.366-1.238c0.242-0.189,0.458-0.297,0.835-0.297c0.728,0,1.292,0.565,1.292,1.32
			c0,0.403-0.188,0.754-0.43,0.996C106.583,20.233,104.968,20.96,102.759,20.96z M105.991,12.529
			c-0.216-2.101-1.454-3.744-3.609-3.744c-1.992,0-3.394,1.535-3.69,3.744H105.991z"/>
	</g>
</g>
</svg>
